<?xml version="1.0" encoding="utf-8"?>
<!-- Generator: Adobe Illustrator 23.0.2, SVG Export Plug-In . SVG Version: 6.00 Build 0)  -->
<svg version="1.1" id="Layer_1" xmlns="http://www.w3.org/2000/svg" xmlns:xlink="http://www.w3.org/1999/xlink" x="0px" y="0px"
	 viewBox="0 0 500 250" style="enable-background:new 0 0 500 250;" xml:space="preserve">
<style type="text/css">
	.st0{fill:#23E3AD;}
</style>
<path class="st0" d="M62.4,78.5v17h31v38.3c0,14.6-8.2,26.1-25.8,26.1c-17.4,0-25.9-8.3-26-24.6h0v-7.1H22.5v6.8h-0.1
	c0,27.3,18.8,42.1,45.1,42.1c28.3,0,45.2-18.2,45.2-43.1V78.5H62.4z"/>
<polygon class="st0" points="32.1,94.5 22.6,113.8 41.6,113.8 "/>
<path class="st0" d="M200.3,141.1c0,19.6-14.3,35.5-37.8,35.5s-37.6-15.9-37.6-35.5s14.4-35.5,37.5-35.5S200.3,121.7,200.3,141.1z
	 M142.8,141.1c0,10.4,6.6,20,19.7,20s19.7-9.6,19.7-20s-7.6-20.1-19.7-20.1C149.6,121,142.8,130.9,142.8,141.1z"/>
<path class="st0" d="M231,107.1v35.6c0,10.3,6,18.2,17.5,18.2c11,0,18.5-8.7,18.5-19v-34.8h17.8v68.2h-16l-1.2-9.2
	c-7.5,6.9-14.4,10.2-24.5,10.2c-17.3,0-30-12.3-30-33.4v-35.8H231z"/>
<path class="st0" d="M317.3,107.1l1.3,7.9c5.6-8.4,13.1-9.7,20.4-9.7s14.7,2.8,18.7,6.5l-8.1,14.6c-3.6-3-8.2-4.6-12.9-4.4
	c-9.4,0-18.1,4.7-18.1,17.2v35.9h-17.9v-68L317.3,107.1z"/>
<path class="st0" d="M382.2,78.6v96.4h-17.8V78.6H382.2z"/>
<path class="st0" d="M472.5,107.1l-44.2,96.4h-19.7L422,174l-29-66.9h21l11,29.4l6.9,19.2l7.5-18.8l13.2-29.8L472.5,107.1z"/>
</svg>
