<svg id="Layer_1" data-name="Layer 1" xmlns="http://www.w3.org/2000/svg" viewBox="0 0 500 250"><title>logo_wide</title><path d="M62.39,78.5v17h31v38.32c0,14.61-8.22,26.05-25.84,26.05-17.36,0-25.88-8.3-26-24.63h.05v-7.08H22.52v6.76h-.07c0,27.3,18.79,42.05,45.08,42.05,28.34,0,45.23-18.2,45.23-43.15V78.5Z"/><polygon points="32.07 94.46 22.61 113.8 41.59 113.8 32.07 94.46"/><path d="M200.28,141.14c0,19.59-14.26,35.46-37.77,35.46s-37.63-15.87-37.63-35.46,14.41-35.46,37.48-35.46S200.28,121.68,200.28,141.14Zm-57.47,0c0,10.35,6.62,20,19.7,20s19.69-9.65,19.69-20S174.56,121,162.51,121C149.57,121,142.81,130.93,142.81,141.14Z"/><path d="M231,107.06v35.6c0,10.34,6,18.21,17.49,18.21,11,0,18.52-8.69,18.52-19V107.06h17.78v68.16h-16L267.58,166c-7.49,6.9-14.4,10.21-24.54,10.21-17.34,0-30-12.28-30-33.39V107.06Z"/><path d="M317.26,107.06l1.32,7.86c5.58-8.41,13.08-9.65,20.43-9.65s14.69,2.76,18.66,6.48l-8.08,14.63A18.59,18.59,0,0,0,336.66,122c-9.41,0-18.08,4.69-18.08,17.25v35.87H300.65v-68Z"/><path d="M382.21,78.64v96.44H364.43V78.64Z"/><path d="M472.45,107.06,428.21,203.5H408.52L422,174l-29-66.91H414l11,29.39,6.91,19.17,7.49-18.76,13.23-29.8Z"/></svg>