<svg xmlns="http://www.w3.org/2000/svg" width="221.892" height="61.637" viewBox="0 0 221.892 61.637"><defs><style>.a{fill:#23e3ac;}</style></defs><g transform="translate(-22.45 -78.5)"><path class="a" d="M42.144,78.5v8.383H57.43v18.9c0,7.2-4.053,12.845-12.742,12.845-8.56,0-12.761-4.093-12.82-12.145h.025v-3.491H22.485v3.333H22.45c0,13.461,9.265,20.735,22.229,20.735,13.974,0,22.3-8.974,22.3-21.277V78.5Z"/><path class="a" d="M27.275,94.46,22.61,104h9.359Z" transform="translate(-0.081 -8.09)"/><path class="a" d="M162.059,123.165c0,9.66-7.031,17.485-18.624,17.485s-18.555-7.825-18.555-17.485,7.105-17.485,18.481-17.485S162.059,113.569,162.059,123.165Zm-28.338,0c0,5.1,3.264,9.862,9.714,9.862s9.709-4.758,9.709-9.862a9.687,9.687,0,0,0-9.709-9.931C137.054,113.234,133.721,118.131,133.721,123.165Z" transform="translate(-51.923 -13.778)"/><path class="a" d="M221.9,107.06v17.554c0,5.1,2.959,8.979,8.624,8.979a9.07,9.07,0,0,0,9.132-9.369V107.06h8.767v33.609H240.53l-.6-4.546c-3.693,3.4-7.1,5.034-12.1,5.034-8.55,0-14.793-6.055-14.793-16.464V107.06Z" transform="translate(-96.612 -14.477)"/><path class="a" d="M308.84,106.153l.651,3.876c2.751-4.147,6.45-4.758,10.074-4.758a14.227,14.227,0,0,1,9.2,3.2l-3.984,7.214a9.167,9.167,0,0,0-6.376-2.16c-4.64,0-8.915,2.313-8.915,8.506v17.687H300.65v-33.53Z" transform="translate(-141.022 -13.57)"/><path class="a" d="M373.2,78.64v47.554H364.43V78.64Z" transform="translate(-173.352 -0.071)"/><path class="a" d="M432.176,107.06l-21.814,47.554h-9.709l6.647-14.546L393,107.075h10.355l5.424,14.492,3.407,9.453,3.693-9.25,6.524-14.694Z" transform="translate(-187.835 -14.477)"/></g></svg>